inDegrees=no
num_controls=7
num_derivatives=13
num_iterations=96
num_multipliers=7
num_parameters=0
num_slacks=7
num_states=26
objective=4.985689
objective_accelerations=0.549214
objective_balance=0.017943
objective_effort=0.150576
objective_height=4.192900
objective_ligament=0.075057
solver_duration=1060.710219
status=Solve_Succeeded
success=true
DataType=double
version=3
OpenSimVersion=4.4-2022-07-23-0e9fedc
endheader
time	/jointset/ground_pelvis/pelvis_tilt/value	/jointset/ground_pelvis/pelvis_tx/value	/jointset/ground_pelvis/pelvis_ty/value	/jointset/hip_l/hip_flexion_l/value	/jointset/hip_l/hip_adduction_l/value	/jointset/hip_l/hip_rotation_l/value	/jointset/back/lumbar_extension/value	/jointset/patellofemoral_l/patellar_flexion_l/value	/jointset/knee_l/knee_flexion_l/value	/jointset/knee_l/knee_adduction_l/value	/jointset/knee_l/knee_rotation_l/value	/jointset/ankle_l/ankle_angle_l/value	/jointset/subtalar_l/subtalar_angle_l/value	/jointset/ground_pelvis/pelvis_tilt/speed	/jointset/ground_pelvis/pelvis_tx/speed	/jointset/ground_pelvis/pelvis_ty/speed	/jointset/hip_l/hip_flexion_l/speed	/jointset/hip_l/hip_adduction_l/speed	/jointset/hip_l/hip_rotation_l/speed	/jointset/back/lumbar_extension/speed	/jointset/patellofemoral_l/patellar_flexion_l/speed	/jointset/knee_l/knee_flexion_l/speed	/jointset/knee_l/knee_adduction_l/speed	/jointset/knee_l/knee_rotation_l/speed	/jointset/ankle_l/ankle_angle_l/speed	/jointset/subtalar_l/subtalar_angle_l/speed	/forceset/tau_hip_flexion_l	/forceset/tau_hip_adduction_l	/forceset/tau_hip_rotation_l	/forceset/tau_knee_flexion_l	/forceset/tau_ankle_angle_l	/forceset/tau_subtalar_angle_l	/forceset/tau_lumbar_extension	lambda_cid13_p0	lambda_cid13_p1	lambda_cid13_p2	lambda_cid13_p3	lambda_cid13_p4	lambda_cid13_p5	lambda_cid14_p0	/jointset/ground_pelvis/pelvis_tilt/accel	/jointset/ground_pelvis/pelvis_tx/accel	/jointset/ground_pelvis/pelvis_ty/accel	/jointset/hip_l/hip_flexion_l/accel	/jointset/hip_l/hip_adduction_l/accel	/jointset/hip_l/hip_rotation_l/accel	/jointset/back/lumbar_extension/accel	/jointset/patellofemoral_l/patellar_flexion_l/accel	/jointset/knee_l/knee_flexion_l/accel	/jointset/knee_l/knee_adduction_l/accel	/jointset/knee_l/knee_rotation_l/accel	/jointset/ankle_l/ankle_angle_l/accel	/jointset/subtalar_l/subtalar_angle_l/accel	gamma_cid13_p0	gamma_cid13_p1	gamma_cid13_p2	gamma_cid13_p3	gamma_cid13_p4	gamma_cid13_p5	gamma_cid14_p0
1	-0.3898679197584551	0.02512597669549781	0.6603759666595717	1.448171517500473	-0.3614913200735609	0.1081044057283106	-0.4363256463895622	1.334015355479357	1.3340153554795	0.004283783816675109	-0.1745128534485831	0.4348972582948205	0.225249800591425	-0.1314468865570728	0.002672979491355015	0.02809699710742545	0.02983160104723278	0.002622898430816257	-0.05668652229413671	-0.0003274685933935056	-0.1464353923468643	-0.1464353923468583	0.002197720681700383	-9.14433892520663e-05	-0.0568888297427028	-0.02792741021258159	-0.206145838721195	0.04817211241805226	-0.00348050004013291	-0.2564213412056124	-0.05883186274129345	0.01369487964931939	0.1884058118431476	-48.84483875072797	5.591594039311913	-4.584224770373549	4.811928803640654	-525.1525339080383	-66.42619126664815	-0.02488901556063069	1.478708098975829	0.2479349729487472	1.573436351861044	-5.591794637795195	-0.1170201448742721	-1.47102041320944	-0.02916644557407051	-4.848682261348943	-4.848682261349043	-0.5556191155529101	-0.02361986243986732	-1.146716128481523	-0.8305216495000559	-7.178754387566297e-09	-8.822749908745715e-08	3.975841917785161e-08	3.040676902566307e-09	-8.743984632089526e-09	-7.856161981157987e-08	-8.870233961101692e-09
1.01	-0.3911093261854345	0.025165074745225	0.6607354170584862	1.448191440013926	-0.36147035423595	0.1074644502007393	-0.4363291813462623	1.332308815711455	1.332308815711455	0.004278505185332173	-0.1745136577803705	0.4342710261918992	0.2249300068265954	-0.1168397181871339	0.005149145001803431	0.04378779183303047	-0.02583737572453351	0.001574619332556871	-0.07129840912461309	-0.0003539211584681871	-0.1948829224898176	-0.1948829224898203	-0.003256184112135996	-6.714079569708393e-05	-0.06837188151794846	-0.03602585666955655	-0.2066754390802011	0.04832861641796381	-0.003526088415817895	-0.2553783729033319	-0.05935336399610069	0.01370096246222271	0.1887183576194764	-48.99310993937019	5.576151332295486	-4.537487045406739	4.82121579139374	-525.0776716310057	-66.26831278131058	-0.0249059314155671	1.45092361555779	0.2478345673077041	1.566104803738473	-5.552990739287686	-0.09808374082665439	-1.455361229587194	0.01445559593066537	-4.844340155234404	-4.844340155235496	-0.5407010183786389	0.01580077998350075	-1.151249726613078	-0.7986716199910151	-8.490003068597218e-09	-1.102090536387892e-07	4.934256078486308e-08	2.559426156684831e-10	-1.297138982665536e-08	-9.007374047473337e-08	-1.208718893908583e-08
1.02	-0.39220482044681	0.02522900989550001	0.6612516161588153	1.447654964451102	-0.3614597415790403	0.1066785581225061	-0.4363322127771747	1.33011749028923	1.330117490289118	0.004218602534695879	-0.1745141499942935	0.4335295335663134	0.2245293955019562	-0.1022644534350191	0.007640399600917945	0.05944673739115601	-0.08144801419316591	0.0005522622933382017	-0.08587383241994855	-0.0002267634074136113	-0.2433925232114368	-0.2433925232114462	-0.008727083189173227	-2.901981294663183e-05	-0.07994093427589564	-0.04409092217435075	-0.2072050394397612	0.0484851204176745	-0.003571676791155491	-0.2543354046011184	-0.059874865250909	0.01370704527479073	0.1890309033952614	-49.1472451857488	5.560838557391757	-4.489745717409226	4.830907258757859	-525.1321071467931	-66.11000643569591	-0.02492271611062378	1.472327375411293	0.2509527906817878	1.567066518365124	-5.580126977168348	-0.1118357330661656	-1.463727706181412	0.001555617658043507	-4.861096377082093	-4.861096377081807	-0.559017972192989	-0.02085618460100048	-1.163916325022133	-0.8238454590641259	-1.104053622702111e-08	-1.350382546382706e-07	5.815052332078854e-08	-8.20443847137352e-10	-1.846858421995726e-08	-1.023039059653513e-07	-1.550630805337225e-08
1.03	-0.3931546675464556	0.02531806805969458	0.6619242066703523	1.446562530361796	-0.3614592319851358	0.1057471283887604	-0.4363323114035275	1.327440855021773	1.327440855021599	0.004103915806461488	-0.1745141680068611	0.4326721249287758	0.2240484294463161	-0.08770499682903869	0.01018732054905698	0.07506220838655268	-0.1370435610916524	-0.0004489539932995312	-0.1004063418132572	0.0003223301215230858	-0.2919359434543206	-0.2919359434543296	-0.01421197540910602	2.447464607610497e-05	-0.09153533638669253	-0.05208752467566887	-0.208134123380868	0.04871078860081528	-0.003627081001829864	-0.2527617419694533	-0.06080251534812472	0.01374761621214457	0.1897433698726322	-49.41996300304886	5.523701237193545	-4.406988423483383	4.81643200094403	-525.1972041248362	-65.92300000424844	-0.02494103583398791	1.447750176511403	0.2589744607784904	1.557409081533057	-5.549982673528541	-0.09406055896111404	-1.44716887496951	0.09888005783106119	-4.851173017718047	-4.851173017718487	-0.5435038675010577	0.01831496529660571	-1.15639321934312	-0.7853355116758944	-1.360371514541841e-08	-1.598965132545698e-07	6.695056566211107e-08	-1.879398189289177e-09	-2.397873564589932e-08	-1.145413984440046e-07	-1.89274900670087e-08
